<svg xmlns="http://www.w3.org/2000/svg" width="30" height="30" viewBox="0 0 30 30">
    <g fill="#91DC5A" fill-rule="evenodd">
        <path fill-rule="nonzero" d="M14.92 0C6.693 0 0 6.693 0 14.92s6.693 14.92 14.92 14.92 14.92-6.693 14.92-14.92S23.147 0 14.92 0zm0 27.436c-6.9 0-12.515-5.615-12.515-12.516S8.019 2.404 14.92 2.404c6.901 0 12.516 5.615 12.516 12.516S21.82 27.436 14.92 27.436z"/>
        <path d="M19.676 10.162l-6.964 6.965-2.548-2.548a1.201 1.201 0 1 0-1.7 1.7l3.398 3.398a1.2 1.2 0 0 0 1.7 0l7.815-7.814a1.203 1.203 0 0 0-1.7-1.7z"/>
    </g>
</svg>
