<svg xmlns="http://www.w3.org/2000/svg" width="120" height="29" viewBox="0 0 120 29">
    <defs>
        <linearGradient id="a" x1="50%" x2="50%" y1="100.709%" y2="-.663%">
            <stop offset="0%" stop-color="#D49143"/>
            <stop offset="12.7%" stop-color="#E7AB5D"/>
            <stop offset="25.81%" stop-color="#F4BE6F"/>
            <stop offset="39.32%" stop-color="#FCC97A"/>
            <stop offset="53.71%" stop-color="#FFCD7E"/>
            <stop offset="100%" stop-color="#DE984D"/>
        </linearGradient>
        <linearGradient id="b" x1="49.938%" x2="49.938%" y1="100.951%" y2="-.951%">
            <stop offset="0%" stop-color="#D49143"/>
            <stop offset="12.7%" stop-color="#E7AB5D"/>
            <stop offset="25.81%" stop-color="#F4BE6F"/>
            <stop offset="39.32%" stop-color="#FCC97A"/>
            <stop offset="53.71%" stop-color="#FFCD7E"/>
            <stop offset="100%" stop-color="#DE984D"/>
        </linearGradient>
        <linearGradient id="c" x1="50.076%" x2="50.076%" y1="101.226%" y2="-1.232%">
            <stop offset="0%" stop-color="#D49143"/>
            <stop offset="12.7%" stop-color="#E7AB5D"/>
            <stop offset="25.81%" stop-color="#F4BE6F"/>
            <stop offset="39.32%" stop-color="#FCC97A"/>
            <stop offset="53.71%" stop-color="#FFCD7E"/>
            <stop offset="100%" stop-color="#DE984D"/>
        </linearGradient>
        <linearGradient id="d" x1="50.014%" x2="50.014%" y1="101.1%" y2="-1.231%">
            <stop offset="0%" stop-color="#D49143"/>
            <stop offset="12.7%" stop-color="#E7AB5D"/>
            <stop offset="25.81%" stop-color="#F4BE6F"/>
            <stop offset="39.32%" stop-color="#FCC97A"/>
            <stop offset="53.71%" stop-color="#FFCD7E"/>
            <stop offset="100%" stop-color="#DE984D"/>
        </linearGradient>
        <linearGradient id="e" x1="50.032%" x2="50.032%" y1="101.1%" y2="-1.231%">
            <stop offset="0%" stop-color="#D49143"/>
            <stop offset="12.7%" stop-color="#E7AB5D"/>
            <stop offset="25.81%" stop-color="#F4BE6F"/>
            <stop offset="39.32%" stop-color="#FCC97A"/>
            <stop offset="53.71%" stop-color="#FFCD7E"/>
            <stop offset="100%" stop-color="#DE984D"/>
        </linearGradient>
        <linearGradient id="f" x1="50.231%" x2="50.231%" y1="107.158%" y2="-7.199%">
            <stop offset="0%" stop-color="#D49143"/>
            <stop offset="12.7%" stop-color="#E7AB5D"/>
            <stop offset="25.81%" stop-color="#F4BE6F"/>
            <stop offset="39.32%" stop-color="#FCC97A"/>
            <stop offset="53.71%" stop-color="#FFCD7E"/>
            <stop offset="100%" stop-color="#DE984D"/>
        </linearGradient>
        <linearGradient id="g" x1="50.073%" x2="50.073%" y1="100.951%" y2="-.951%">
            <stop offset="0%" stop-color="#D49143"/>
            <stop offset="12.7%" stop-color="#E7AB5D"/>
            <stop offset="25.81%" stop-color="#F4BE6F"/>
            <stop offset="39.32%" stop-color="#FCC97A"/>
            <stop offset="53.71%" stop-color="#FFCD7E"/>
            <stop offset="100%" stop-color="#DE984D"/>
        </linearGradient>
        <linearGradient id="h" x1="50.012%" x2="50.012%" y1="101.473%" y2="-1.11%">
            <stop offset="0%" stop-color="#D49143"/>
            <stop offset="12.7%" stop-color="#E7AB5D"/>
            <stop offset="25.81%" stop-color="#F4BE6F"/>
            <stop offset="39.32%" stop-color="#FCC97A"/>
            <stop offset="53.71%" stop-color="#FFCD7E"/>
            <stop offset="100%" stop-color="#DE984D"/>
        </linearGradient>
        <linearGradient id="i" x1="49.942%" x2="49.942%" y1="100.919%" y2="-.919%">
            <stop offset="0%" stop-color="#D49143"/>
            <stop offset="12.7%" stop-color="#E7AB5D"/>
            <stop offset="25.81%" stop-color="#F4BE6F"/>
            <stop offset="39.32%" stop-color="#FCC97A"/>
            <stop offset="53.71%" stop-color="#FFCD7E"/>
            <stop offset="100%" stop-color="#DE984D"/>
        </linearGradient>
        <linearGradient id="j" x1="49.885%" x2="49.885%" y1="100.938%" y2="-.932%">
            <stop offset="0%" stop-color="#D49143"/>
            <stop offset="12.7%" stop-color="#E7AB5D"/>
            <stop offset="25.81%" stop-color="#F4BE6F"/>
            <stop offset="39.32%" stop-color="#FCC97A"/>
            <stop offset="53.71%" stop-color="#FFCD7E"/>
            <stop offset="100%" stop-color="#DE984D"/>
        </linearGradient>
        <linearGradient id="k" x1="50.117%" x2="50.117%" y1="101.226%" y2="-1.232%">
            <stop offset="0%" stop-color="#D49143"/>
            <stop offset="12.7%" stop-color="#E7AB5D"/>
            <stop offset="25.81%" stop-color="#F4BE6F"/>
            <stop offset="39.32%" stop-color="#FCC97A"/>
            <stop offset="53.71%" stop-color="#FFCD7E"/>
            <stop offset="100%" stop-color="#DE984D"/>
        </linearGradient>
    </defs>
    <g fill="none" fill-rule="nonzero">
        <path fill="url(#a)" d="M116.498 2.91H3.502a.637.637 0 0 0-.638.628v21.936c0 .347.28.628.638.628h112.996a.637.637 0 0 0 .638-.628V3.538a.629.629 0 0 0-.638-.627zm0-2.023c1.443 0 2.616 1.179 2.616 2.651v21.936c0 1.464-1.176 2.651-2.616 2.651H3.502c-1.443 0-2.616-1.178-2.616-2.65V3.537c0-1.463 1.176-2.65 2.616-2.65h112.996zm0-.887C118.425 0 120 1.583 120 3.538v21.936c0 1.946-1.578 3.526-3.502 3.526H3.502C1.575 29 0 27.428 0 25.474V3.538C0 1.583 1.575 0 3.502 0h112.996zm0 2.023H3.502c-.842 0-1.524.686-1.524 1.515v21.936c0 .826.678 1.503 1.524 1.503h112.996c.84 0 1.524-.684 1.524-1.503V3.538c0-.83-.682-1.515-1.524-1.515z"/>
        <path fill="url(#b)" d="M1.446 13.405h-.178v.02a.31.31 0 0 1 .086.058.286.286 0 0 1 .092-.063v-.015zm4.16-5.389c2.282 0 3.526-1.117 3.526-3.21 0-2.09-1.251-3.211-3.526-3.211h-4.16v6.421h4.16zM2.59 9.376v4.294c0 .62-.46 1.095-1.075 1.095h-.33c-.609 0-1.062-.469-1.062-1.095V1.343C.124.709.572.235 1.187.235h4.419c2.968 0 4.849 1.685 4.849 4.57 0 2.889-1.873 4.571-4.85 4.571H2.592zM1.268 8.243V1.355h4.24c2.422 0 3.79 1.237 3.79 3.45 0 2.214-1.368 3.45-3.79 3.45h-.66v-.012h-3.58zm6.708-3.438c0-1.42-.741-2.09-2.467-2.09H2.59v4.168H5.9c1.447-.098 2.076-.77 2.076-2.078z" transform="translate(15 7)"/>
        <path fill="url(#c)" d="M12.218 6.218c.02.007.039.016.056.027a.277.277 0 0 1 .113-.042h-.164l-.005.015zm5.447 2.459l-2.875.416c-1.94.275-3.032 1.158-3.032 2.373 0 1.152 1.156 2.128 2.6 2.128 1.372 0 2.197-.458 2.663-1.181l.986-1.53V8.628l-.342.05zm.455 4.784a.257.257 0 0 1 .114-.053l-.227-.003c.04.01.079.029.113.056zm-3.761 1.493c-2.124 0-3.924-1.52-3.924-3.488 0-2.025 1.654-3.363 4.173-3.72l2.303-.333v-.064c0-.994-.513-1.46-1.81-1.46-.935 0-1.5.365-1.64.793-.16.568-.536.881-1.074.881h-.256c-.585 0-1.063-.494-1.063-1.096 0-1.472 1.676-3.034 4.021-3.034 2.859 0 4.24 1.636 4.24 3.966v6.27c0 .616-.454 1.096-1.062 1.096h-.293c-.395 0-.731-.204-.915-.524-.69.455-1.587.713-2.7.713zm3.875-5.276c0 2.601-1.514 4.185-3.705 4.168-1.628 0-2.986-.906-2.986-2.48 0-1.46 1.335-2.349 3.588-2.663l3.103-.45v1.425zm-2.922.372c-1.68.234-2.447.744-2.447 1.316 0 .669.678 1.12 1.669 1.12 1.417.01 2.33-.906 2.375-2.667l-1.597.23z" transform="translate(15 7)"/>
        <path fill="url(#d)" d="M21.602 12.373c-.03 0-.149-.061-.121-.025l.017.025h.104zm5.662-6.418a5.316 5.316 0 0 0-.027-.042h-.108c.042 0 .097.028.127.048a.26.26 0 0 1 .008-.006zm-6.991 6.204l-.001-.02a1.066 1.066 0 0 1 1.062-1.126h.268c.384 0 .65.138.942.527.456.663.97.959 2.004.959 1.209 0 1.847-.41 1.847-1.033 0-.51-.393-.742-2.541-1.25-2.367-.555-3.315-1.608-3.315-3.37 0-1.901 1.577-3.413 3.912-3.413 2.253 0 3.92 1.391 4.008 2.71a1.068 1.068 0 0 1-1.062 1.13h-.268c-.42 0-.73-.199-.958-.552-.399-.638-.713-.833-1.72-.833-1.045 0-1.481.36-1.481.957 0 .469.352.713 2.272 1.163 2.503.583 3.595 1.627 3.595 3.47 0 2.04-1.718 3.489-4.28 3.489-2.387-.012-4.189-1.496-4.284-2.808z" transform="translate(15 7)"/>
        <path fill="url(#e)" d="M30.55 12.373c-.03 0-.149-.061-.122-.025l.017.025h.105zm5.661-6.418a5.316 5.316 0 0 0-.026-.042h-.108c.042 0 .096.028.127.048a.26.26 0 0 1 .007-.006zm-6.99 6.204l-.001-.02a1.066 1.066 0 0 1 1.062-1.126h.268c.384 0 .65.138.942.527.456.663.97.959 2.004.959 1.208 0 1.846-.41 1.846-1.033 0-.51-.392-.742-2.54-1.25-2.367-.555-3.315-1.608-3.315-3.37 0-1.901 1.577-3.413 3.911-3.413 2.254 0 3.92 1.391 4.009 2.71a1.068 1.068 0 0 1-1.063 1.13h-.267c-.42 0-.731-.199-.959-.552-.398-.638-.712-.833-1.72-.833-1.044 0-1.48.36-1.48.957 0 .469.351.713 2.272 1.163 2.503.583 3.595 1.627 3.595 3.47 0 2.04-1.718 3.489-4.28 3.489-2.378-.012-4.19-1.5-4.284-2.808z" transform="translate(15 7)"/>
        <path fill="url(#f)" d="M38.641 13.67v-.907c0-.612.45-1.108 1.063-1.108h.877c.597 0 1.075.494 1.075 1.108v.907c0 .618-.481 1.095-1.075 1.095h-.877c-.598 0-1.063-.47-1.063-1.095z" transform="translate(15 7)"/>
        <path fill="url(#g)" d="M44.517 13.405h-.178v.017c.03.013.06.035.087.061a.292.292 0 0 1 .091-.06v-.018zm0-12.062c0 .088-.087.195-.178.236v.016h.178v-.252zm.203.252c-.1 0-.18-.066-.215-.139l.069.139h.146zm9.244-.13a.24.24 0 0 1-.211.13h.146l.065-.13zm.158.13v-.016c-.091-.04-.178-.148-.178-.236v.252h.178zm-.178 11.828a.294.294 0 0 1 .088.058.284.284 0 0 1 .09-.061v-.015h-.178v.018zM45.66 3.47l.327 2.984-.327-.125V3.47zm0 2.86v7.339c0 .615-.454 1.095-1.063 1.095h-.328c-.617 0-1.076-.464-1.076-1.095V1.343c0-.64.454-1.108 1.076-1.108h.45c.475 0 .802.27.966.61l3.54 7.127 3.557-7.12c.167-.347.495-.617.97-.617h.438c.622 0 1.075.469 1.075 1.108V13.67c0 .62-.46 1.095-1.075 1.095h-.329c-.598 0-1.063-.47-1.063-1.095V6.33l-2.21 4.507c-.222.486-.614.768-1.158.768h-.402c-.548 0-.945-.278-1.15-.752L45.66 6.33zm6.811.124l.327-2.984v2.86l-.327.124z" transform="translate(15 7)"/>
        <path fill="url(#h)" d="M64.669 8.96v-.012c0-2.674-1.23-4.168-3.356-4.168-1.92 0-3.157 1.394-3.32 3.674a20.82 20.82 0 0 0-.008.507h6.684zm-.235 3.268c-.065.04-.089.044-.041.044h.029c.035-.05.042-.062.012-.044zm-3.121.246c.565 0 1.031-.145 1.416-.393.262-.17.458-.37.578-.544.333-.479.572-.625 1.086-.625h.292c.597 0 1.105.48 1.038 1.094-.07 1.386-2.141 2.923-4.403 2.923-2.657.029-4.436-1.952-4.648-4.937l-.001-.027a31.292 31.292 0 0 1 .001-1.583c.213-2.974 1.976-4.962 4.64-4.962 2.911 0 4.68 2.15 4.68 5.528v.277c0 .618-.482 1.096-1.076 1.096h-5.76c.224 1.268 1.053 2.153 2.157 2.153zm3.57-3.186h-7.105v-.755c0-2.31 1.396-4.005 3.535-4.005 2.143 0 3.57 1.702 3.57 4.005v.755zm-3.57-3.4c-1.177 0-1.977.784-2.168 2.04h4.37c-.197-1.249-1.018-2.04-2.202-2.04z" transform="translate(15 7)"/>
        <path fill="url(#i)" d="M71.161 13.594c1.167 0 1.97-.426 2.52-1.205L74.664 11V7.353l-.978-1.363c-.56-.78-1.365-1.21-2.524-1.21-2.081 0-3.155 1.521-3.234 3.9-.012.364-.012.65 0 1.013.079 2.38 1.153 3.901 3.234 3.901zm3.61-12.248a.266.266 0 0 1-.108.054l.215.006a.376.376 0 0 1-.107-.06zm0 12.12a.266.266 0 0 1 .107-.055l-.215-.006a.376.376 0 0 1 .108.06zm-3.61 1.488c-2.914 0-4.456-2.182-4.556-5.215-.013-.393-.013-.71 0-1.104.1-3.032 1.642-5.215 4.556-5.215.933 0 1.731.222 2.395.633V1.14c0-.615.454-1.095 1.063-1.095h.304c.599 0 1.063.47 1.063 1.095V13.67c0 .615-.454 1.095-1.063 1.095h-.304c-.399 0-.738-.208-.92-.531-.689.468-1.535.72-2.538.72zm3.717-5.064v.005c-.088 2.226-1.376 3.964-3.607 3.964-2.313 0-3.458-1.634-3.559-4.12-.012-.393-.012-.71 0-1.109.1-2.487 1.244-4.114 3.559-4.114 2.2 0 3.555 1.725 3.607 3.855.013.393.013 1.126 0 1.519zm-1.322-1.48c-.036-1.458-.88-2.534-2.285-2.534-1.481 0-2.163.97-2.236 2.805-.012.363-.012.65 0 1.007.074 1.834.758 2.81 2.236 2.81 1.416 0 2.222-1.086 2.285-2.656.012-.363.012-1.064 0-1.431z" transform="translate(15 7)"/>
        <path fill="url(#j)" d="M78.936 1.607v-.201h-.186v.201h.186zm-1.51.265v-.718c0-.612.451-1.108 1.064-1.108h.694c.597 0 1.075.494 1.075 1.108v.718c0 .617-.481 1.095-1.075 1.095h-.694c-.61 0-1.063-.469-1.063-1.095zm1.303 11.533a.376.376 0 0 1 .108.06.266.266 0 0 1 .107-.054l-.215-.006zm.108-8.483a.266.266 0 0 1-.108.054l.215.006a.376.376 0 0 1-.107-.06zm-1.215 8.748V4.717c0-.615.454-1.095 1.063-1.095h.304c.599 0 1.063.47 1.063 1.095v8.953c0 .615-.454 1.095-1.063 1.095h-.304c-.599 0-1.063-.47-1.063-1.095z" transform="translate(15 7)"/>
        <path fill="url(#k)" d="M82.753 6.218c.02.007.038.016.055.027a.277.277 0 0 1 .113-.042h-.163l-.005.015zm5.446 2.459l-2.875.416c-1.94.275-3.032 1.158-3.032 2.373 0 1.15 1.155 2.128 2.59 2.128 1.37 0 2.196-.458 2.662-1.181l.997-1.548V8.627l-.342.05zm.45 4.788a.266.266 0 0 1 .107-.054l-.215-.006a.376.376 0 0 1 .108.06zm-3.768 1.49c-2.114 0-3.912-1.522-3.912-3.489 0-2.025 1.655-3.363 4.173-3.72l2.304-.333v-.064c0-.994-.514-1.46-1.81-1.46-.936 0-1.5.365-1.641.793-.16.568-.535.881-1.074.881h-.256c-.585 0-1.063-.494-1.063-1.096 0-1.472 1.677-3.034 4.022-3.034 2.858 0 4.24 1.636 4.24 3.966v6.27c0 .616-.454 1.096-1.063 1.096h-.304c-.395 0-.732-.204-.915-.524-.691.455-1.588.713-2.7.713zm3.887-5.277c0 2.601-1.514 4.185-3.704 4.168-1.628 0-2.987-.906-2.987-2.48 0-1.46 1.336-2.349 3.588-2.663l3.103-.45v1.425zm-2.921.372c-1.68.234-2.447.744-2.447 1.316 0 .669.677 1.12 1.668 1.12 1.417.01 2.33-.906 2.376-2.667l-1.597.23z" transform="translate(15 7)"/>
    </g>
</svg>
