<svg xmlns="http://www.w3.org/2000/svg" width="30" height="30" viewBox="0 0 30 30">
    <g fill="#D80027" fill-rule="evenodd">
        <path fill-rule="nonzero" d="M14.92 0C6.694 0 0 6.694 0 14.92c0 8.228 6.694 14.92 14.92 14.92 8.227 0 14.92-6.692 14.92-14.92C29.84 6.695 23.149 0 14.92 0zm0 27.436c-6.9 0-12.515-5.615-12.515-12.516 0-6.9 5.615-12.515 12.515-12.515 6.902 0 12.517 5.614 12.517 12.515 0 6.901-5.615 12.516-12.517 12.516z"/>
        <path d="M20.531 13.718H9.311a1.202 1.202 0 0 0 0 2.405h11.22a1.203 1.203 0 0 0 0-2.405z"/>
    </g>
</svg>
