<svg xmlns="http://www.w3.org/2000/svg" width="33" height="39" viewBox="0 0 33 39">
    <defs>
        <linearGradient id="a" x1="50%" x2="50%" y1="2.274%" y2="100%">
            <stop offset="0%" stop-color="#F1B769"/>
            <stop offset="100%" stop-color="#E09B4F"/>
        </linearGradient>
    </defs>
    <g fill="url(#a)" fill-rule="evenodd" transform="translate(-224 -206)">
        <path d="M255.83 242.745h-2.067v-2.9H252.592c-.218 0-.438-.058-.634-.18l-10.105-6.282a2.577 2.577 0 0 0-2.705.001l-10.083 6.28c-.197.123-.417.18-.636.18h-1.192v2.9h-2.067c-.646 0-1.17.506-1.17 1.128 0 .623.524 1.128 1.17 1.128h30.66c.646 0 1.17-.505 1.17-1.128 0-.622-.524-1.127-1.17-1.127z"/>
        <path d="M225.17 208.322h2.067v3.397c0 5.003 2.653 9.58 7.47 12.888.154.107.4.529.4 1.208 0 .68-.246 1.101-.401 1.208-4.196 2.882-6.749 6.727-7.337 10.977h.715l9.794-6.28a4.875 4.875 0 0 1 5.245-.002l9.814 6.282h.694c-.589-4.25-3.141-8.095-7.337-10.977-.155-.107-.402-.529-.402-1.208 0-.679.247-1.101.402-1.208 4.817-3.308 7.469-7.885 7.47-12.888v-3.397h2.066c.646 0 1.17-.52 1.17-1.161s-.524-1.161-1.17-1.161h-30.66c-.646 0-1.17.52-1.17 1.161s.524 1.161 1.17 1.161z"/>
    </g>
</svg>
